<svg width="1920" height="1080" viewBox="0 0 1920 1080" fill="none" xmlns="http://www.w3.org/2000/svg">
<g clip-path="url(#clip0_11_83)">
<path d="M1063.64 -1641.59L-1160 1655.09L694.384 2905.89L2918.02 -390.793L1063.64 -1641.59Z" fill="#EDEDED"/>
<path d="M-250.983 2268.23L-217.19 2202.2C-183.401 2136.17 -115.817 2004.1 -35.7505 1880.46C44.3159 1756.81 136.868 1641.59 220.37 1520.26C303.874 1398.94 378.329 1271.51 362.072 1082.89C345.814 894.277 238.842 644.474 305.208 511.589C371.576 378.705 611.284 362.738 645.415 208.11C679.546 53.4817 508.103 -239.808 576.068 -371.614C644.031 -503.422 951.402 -473.748 1089.8 -558.044C1228.21 -642.339 1197.65 -840.605 1175.48 -1033.2C1153.32 -1225.8 1139.56 -1412.73 1132.68 -1506.19L1125.8 -1599.66L2918.03 -390.793L2876.85 -329.743C2835.67 -268.694 2753.31 -146.595 2670.95 -24.4958C2588.6 97.6034 2506.24 219.704 2423.88 341.803C2341.53 463.903 2259.17 586.002 2176.81 708.101C2094.45 830.2 2012.1 952.299 1929.74 1074.4C1847.38 1196.5 1765.03 1318.6 1682.67 1440.7C1600.31 1562.8 1517.95 1684.9 1435.6 1807C1353.24 1929.09 1270.88 2051.19 1188.53 2173.29C1106.17 2295.39 1023.81 2417.49 941.455 2539.59C859.098 2661.69 776.741 2783.79 735.563 2844.84L694.384 2905.89L-250.983 2268.23Z" fill="#F9F9F9"/>
<path d="M415.39 2717.71L394.119 2614.53C372.848 2511.36 330.307 2305.02 350.148 2140.75C369.99 1976.49 452.216 1854.3 625.191 1793.32C798.165 1732.34 1061.89 1732.58 1241.65 1676.18C1421.42 1619.78 1517.22 1506.75 1488.67 1309.84C1460.11 1112.93 1307.2 832.138 1292.61 644.651C1278.03 457.163 1401.77 362.979 1574.84 302.066C1747.91 241.153 1970.3 213.511 2151.73 158.232C2333.15 102.953 2473.6 20.0369 2517.75 -127.835C2561.89 -275.707 2509.74 -488.535 2483.66 -594.949L2457.58 -701.364L2918.02 -390.793L2876.85 -329.742C2835.67 -268.694 2753.31 -146.595 2670.95 -24.4954C2588.6 97.6037 2506.24 219.705 2423.88 341.804C2341.53 463.903 2259.17 586.002 2176.81 708.101C2094.45 830.201 2012.1 952.3 1929.74 1074.4C1847.38 1196.5 1765.03 1318.6 1682.67 1440.7C1600.31 1562.8 1517.95 1684.9 1435.6 1807C1353.24 1929.09 1270.88 2051.19 1188.53 2173.29C1106.17 2295.39 1023.81 2417.49 941.455 2539.59C859.098 2661.69 776.741 2783.79 735.563 2844.84L694.384 2905.89L415.39 2717.71Z" fill="#EDEDED"/>
</g>
<defs>
<clipPath id="clip0_11_83">
<rect width="1920" height="1080" fill="white"/>
</clipPath>
</defs>
</svg>
